<?xml version="1.0" encoding="UTF-8" standalone="no"?>
<!-- Created with Inkscape (http://www.inkscape.org/) -->

<svg
   xmlns:dc="http://purl.org/dc/elements/1.1/"
   xmlns:cc="http://creativecommons.org/ns#"
   xmlns:rdf="http://www.w3.org/1999/02/22-rdf-syntax-ns#"
   xmlns:svg="http://www.w3.org/2000/svg"
   xmlns="http://www.w3.org/2000/svg"
   xmlns:sodipodi="http://sodipodi.sourceforge.net/DTD/sodipodi-0.dtd"
   xmlns:inkscape="http://www.inkscape.org/namespaces/inkscape"
   width="79.375"
   height="79.375"
   id="svg2"
   inkscape:label="Pozadí"
   version="1.1"
   inkscape:version="0.48.5 r10040"
   sodipodi:docname="fb-alt1.svg">
  <defs
     id="defs6210">
    <clipPath
       id="clipPath3330"
       clipPathUnits="userSpaceOnUse">
      <path
         inkscape:connector-curvature="0"
         id="path3332"
         d="M 0,600 1200,600 1200,0 0,0 0,600 z" />
    </clipPath>
    <clipPath
       id="clipPath4614"
       clipPathUnits="userSpaceOnUse">
      <path
         inkscape:connector-curvature="0"
         id="path4616"
         d="M 0,600 1200,600 1200,0 0,0 0,600 z" />
    </clipPath>
    <clipPath
       id="clipPath4626"
       clipPathUnits="userSpaceOnUse">
      <path
         inkscape:connector-curvature="0"
         id="path4628"
         d="m 901.196,462.617 8.105,0 0,-4.746 -8.105,0 0,4.746 z" />
    </clipPath>
    <clipPath
       id="clipPath4542"
       clipPathUnits="userSpaceOnUse">
      <path
         inkscape:connector-curvature="0"
         id="path4544"
         d="M 0,600 1200,600 1200,0 0,0 0,600 z" />
    </clipPath>
  </defs>
  <sodipodi:namedview
     id="base"
     pagecolor="#ffffff"
     bordercolor="#666666"
     borderopacity="1.0"
     inkscape:pageopacity="0.0"
     inkscape:pageshadow="2"
     inkscape:zoom="7.9195959"
     inkscape:cx="6.6202502"
     inkscape:cy="38.664178"
     inkscape:document-units="px"
     inkscape:current-layer="layer1"
     showgrid="false"
     fit-margin-top="0"
     fit-margin-left="0"
     fit-margin-right="0"
     fit-margin-bottom="0"
     inkscape:window-width="1920"
     inkscape:window-height="1017"
     inkscape:window-x="-8"
     inkscape:window-y="-8"
     inkscape:window-maximized="1" />
  <metadata
     id="metadata6213">
    <rdf:RDF>
      <cc:Work
         rdf:about="">
        <dc:format>image/svg+xml</dc:format>
        <dc:type
           rdf:resource="http://purl.org/dc/dcmitype/StillImage" />
        <dc:title></dc:title>
      </cc:Work>
    </rdf:RDF>
  </metadata>
  <g
     inkscape:label="Vrstva 1"
     inkscape:groupmode="layer"
     id="layer1"
     transform="translate(-14.766805,-29.31388)">
    <path
       style="fill:#f9f7f9;fill-opacity:0.94117647;stroke:none"
       d="M 39.6875 0 C 17.769827 4.4085106e-015 -6.1644386e-017 17.773631 0 39.6875 C 6.9388939e-018 61.601369 17.769827 79.34375 39.6875 79.34375 C 61.605173 79.34375 79.375 61.601369 79.375 39.6875 C 79.375 17.773631 61.605173 -8.8095811e-015 39.6875 0 z M 44.28125 20.9375 C 46.7175 20.9375 48.82625 21.10625 49.4375 21.1875 L 49.4375 27.15625 L 45.90625 27.15625 C 43.13875 27.15625 42.59375 28.47625 42.59375 30.40625 L 42.59375 34.65625 L 49.1875 34.65625 L 48.34375 41.34375 L 42.59375 41.34375 L 42.59375 58.4375 L 35.71875 58.4375 L 35.71875 41.34375 L 29.9375 41.34375 L 29.9375 34.65625 L 35.71875 34.65625 L 35.71875 29.75 C 35.71875 24.04375 39.18875 20.9375 44.28125 20.9375 z "
       id="path3761"
       transform="translate(14.766805,29.31388)" />
  </g>
</svg>
