<?xml version="1.0" encoding="UTF-8" standalone="no"?>
<!-- Created with Inkscape (http://www.inkscape.org/) -->

<svg
   xmlns:dc="http://purl.org/dc/elements/1.1/"
   xmlns:cc="http://creativecommons.org/ns#"
   xmlns:rdf="http://www.w3.org/1999/02/22-rdf-syntax-ns#"
   xmlns:svg="http://www.w3.org/2000/svg"
   xmlns="http://www.w3.org/2000/svg"
   xmlns:sodipodi="http://sodipodi.sourceforge.net/DTD/sodipodi-0.dtd"
   xmlns:inkscape="http://www.inkscape.org/namespaces/inkscape"
   width="79"
   height="79"
   id="svg2"
   inkscape:label="Pozadí"
   version="1.1"
   inkscape:version="0.48.5 r10040"
   sodipodi:docname="sound.svg">
  <defs
     id="defs3009" />
  <sodipodi:namedview
     id="base"
     pagecolor="#ffffff"
     bordercolor="#666666"
     borderopacity="1.0"
     inkscape:pageopacity="0.0"
     inkscape:pageshadow="2"
     inkscape:zoom="7.919596"
     inkscape:cx="64.600075"
     inkscape:cy="36.749602"
     inkscape:document-units="px"
     inkscape:current-layer="layer1"
     showgrid="false"
     fit-margin-top="0"
     fit-margin-left="0"
     fit-margin-right="0"
     fit-margin-bottom="0"
     inkscape:window-width="1920"
     inkscape:window-height="1017"
     inkscape:window-x="-8"
     inkscape:window-y="-8"
     inkscape:window-maximized="1" />
  <metadata
     id="metadata3012">
    <rdf:RDF>
      <cc:Work
         rdf:about="">
        <dc:format>image/svg+xml</dc:format>
        <dc:type
           rdf:resource="http://purl.org/dc/dcmitype/StillImage" />
        <dc:title></dc:title>
      </cc:Work>
    </rdf:RDF>
  </metadata>
  <g
     inkscape:label="Vrstva 1"
     inkscape:groupmode="layer"
     id="layer1"
     transform="translate(-24.785719,-11.32369)">
    <path
       style="fill:#f9f7f9;fill-opacity:1;stroke:none"
       d="M 39.5 0 C 17.689917 0 1.0543119e-017 17.669755 0 39.46875 C 0 61.267744 17.689917 78.9375 39.5 78.9375 C 61.310082 78.9375 78.96875 61.267744 78.96875 39.46875 C 78.96875 17.669755 61.310082 1.0537759e-017 39.5 0 z M 45.53125 24.40625 C 51.196122 24.227298 56.717808 28.10943 58.0625 33.875 C 58.175852 34.373765 58.264402 34.876235 58.34375 35.375 C 58.38909 35.681059 58.461092 35.780947 58.8125 35.65625 C 62.825304 34.216634 67.1529 36.728925 68.09375 40.84375 C 68.977929 44.675185 66.086952 48.870415 62.1875 49.3125 C 61.700073 49.36919 61.217515 49.375 60.71875 49.375 C 54.506827 49.375 48.305658 49.38635 42.09375 49.375 C 41.005528 49.375 40.8125 49.181965 40.8125 48.09375 C 40.80115 44.523039 40.78125 40.885973 40.78125 37.28125 L 40.78125 26.46875 C 40.78125 25.607246 40.851437 25.536139 41.65625 25.21875 C 42.92938 24.7214 44.223972 24.447547 45.53125 24.40625 z M 39.3125 26.125 C 39.788591 26.125 40.11367 26.439038 40.125 27.0625 C 40.21568 31.029954 40.250303 35.001289 40.375 38.96875 C 40.46568 42.06337 40.351756 45.166702 40.125 48.25 C 40.11365 48.397357 40.12774 48.540128 40.09375 48.6875 C 40.00306 49.140923 39.714761 49.389093 39.25 49.34375 C 38.807915 49.29842 38.585167 49.024506 38.5625 48.59375 C 38.43781 45.839201 38.179228 43.0983 38.28125 40.34375 C 38.33794 38.643403 38.28125 36.939009 38.28125 35.25 C 38.30388 35.23865 38.341025 35.25 38.375 35.25 C 38.43169 32.529456 38.505813 29.814294 38.5625 27.09375 C 38.57385 26.481632 38.836403 26.125 39.3125 26.125 z M 36.90625 27.46875 C 37.348343 27.4801 37.65625 27.833958 37.65625 28.46875 L 37.65625 36.625 L 37.8125 36.625 C 38.027874 40.603799 37.928303 44.583701 37.65625 48.5625 C 37.62227 49.049935 37.405015 49.352326 36.90625 49.375 C 36.486832 49.39763 36.232843 49.05269 36.1875 48.53125 C 35.756745 42.68208 36.022953 36.84917 36.125 31 C 36.13635 30.149826 36.17622 29.318916 36.1875 28.46875 C 36.19885 27.845288 36.452827 27.45742 36.90625 27.46875 z M 29.65625 29.15625 C 29.716293 29.15253 29.778569 29.170497 29.84375 29.1875 C 30.195158 29.27819 30.30117 29.546266 30.3125 29.875 C 30.34648 31.042569 30.394911 32.207431 30.40625 33.375 L 30.40625 37.0625 C 30.564945 39.783045 30.780629 42.498206 30.53125 45.21875 C 30.429228 46.329633 30.380517 47.420368 30.3125 48.53125 C 30.28987 48.928001 30.228843 49.33242 29.71875 49.34375 C 29.19731 49.3551 29.159005 48.970581 29.125 48.5625 C 28.784929 44.606376 28.767461 40.643617 28.9375 36.6875 C 29.02818 34.477051 29.056983 32.272943 29.125 30.0625 C 29.13635 29.858456 29.105385 29.630206 29.21875 29.4375 C 29.320776 29.258963 29.47612 29.167409 29.65625 29.15625 z M 32.125 29.46875 C 32.431059 29.4801 32.619483 29.622858 32.6875 29.90625 C 32.73284 30.064951 32.71875 30.267461 32.71875 30.4375 C 32.84344 34.495646 33.028495 38.535604 33.0625 42.59375 C 33.08513 44.588818 32.84344 46.59869 32.71875 48.59375 C 32.69612 49.001831 32.592523 49.375 32.09375 49.375 C 31.572317 49.375 31.471504 48.973343 31.4375 48.53125 C 31.154108 44.665811 31.077206 40.80294 31.28125 36.9375 L 31.28125 36.65625 C 31.32659 36.6449 31.380825 36.65625 31.4375 36.65625 L 31.4375 30.375 C 31.4375 30.204969 31.44331 30.033695 31.5 29.875 C 31.59068 29.591609 31.818934 29.457412 32.125 29.46875 z M 27.3125 29.625 C 27.743255 29.6023 27.86367 29.938424 27.875 30.3125 C 27.90898 31.162666 27.95744 32.024826 27.96875 32.875 C 28.0481 36.400368 28.329347 39.912124 28.25 43.4375 C 28.21602 45.171844 28.011034 46.890655 27.875 48.625 C 27.85237 48.965071 27.788587 49.34375 27.3125 49.34375 C 26.813727 49.34375 26.772667 48.979164 26.75 48.59375 C 26.511951 45.057045 26.236529 41.526921 26.53125 38.625 C 26.62194 35.462369 26.701896 32.942663 26.78125 30.4375 L 26.78125 30.34375 C 26.7699 29.969674 26.938424 29.647668 27.3125 29.625 z M 34.53125 29.875 C 34.973335 29.93169 35.176162 30.202827 35.1875 30.65625 C 35.24419 32.81002 35.31832 34.951317 35.375 37.09375 L 35.5 37.09375 C 35.5 38.884781 35.55669 40.677726 35.5 42.46875 C 35.43196 44.543165 35.300852 46.613085 35.1875 48.6875 C 35.16487 49.10691 34.930748 49.375 34.5 49.375 C 34.04657 49.36365 33.835175 49.067093 33.8125 48.625 C 33.73315 47.230726 33.639092 45.831781 33.59375 44.4375 C 33.446393 39.82391 33.767157 35.238591 33.8125 30.625 C 33.8125 30.148909 34.145837 29.81832 34.53125 29.875 z M 25 30.65625 C 25.283391 30.6676 25.426162 30.872867 25.4375 31.15625 C 25.49419 32.26714 25.548408 33.35786 25.59375 34.46875 C 25.707102 37.200632 25.872238 39.944281 25.90625 42.6875 C 25.9176 44.206471 25.707109 45.731037 25.59375 47.25 C 25.55977 47.669426 25.55671 48.091919 25.5 48.5 C 25.45466 48.851401 25.555442 49.34375 25 49.34375 C 24.444555 49.3551 24.471505 48.851401 24.4375 48.5 C 24.335471 47.253076 24.300852 46.028167 24.1875 44.78125 C 23.949451 42.287417 24.23588 39.786421 24.28125 37.28125 C 24.33794 35.399534 24.40074 33.506716 24.46875 31.625 C 24.46875 31.477643 24.48865 31.303614 24.5 31.15625 C 24.53398 30.861529 24.682604 30.644912 25 30.65625 z M 22.625 32.90625 C 23.02175 32.90625 23.071075 33.205264 23.09375 33.5 C 23.18443 35.08698 23.264403 36.663013 23.34375 38.25 C 23.4231 39.700953 23.514395 41.151986 23.59375 42.875 C 23.480398 44.201271 23.35477 45.776676 23.21875 47.375 C 23.17341 47.885096 23.119174 48.39614 23.0625 48.90625 C 23.03987 49.166966 22.897053 49.33242 22.625 49.34375 C 22.341609 49.3551 22.221512 49.175541 22.1875 48.9375 C 22.13081 48.359373 22.130507 47.765619 22.0625 47.1875 C 21.60907 43.344728 21.912406 39.499022 22.09375 35.65625 C 22.12773 34.942104 22.142168 34.225476 22.1875 33.5 C 22.19885 33.205264 22.239617 32.90625 22.625 32.90625 z M 18 36.1875 C 18.249393 36.17615 18.363655 36.355709 18.375 36.59375 C 18.579036 38.656828 18.744794 40.738085 18.9375 42.8125 C 18.744794 44.818906 18.567706 46.837352 18.375 48.84375 C 18.35237 49.059124 18.257961 49.1875 18.03125 49.1875 C 17.759196 49.1875 17.710168 49.007954 17.6875 48.78125 C 17.551481 47.2056 17.439951 45.6069 17.28125 44.03125 C 17.088543 42.081532 17.471808 40.157139 17.5625 38.21875 C 17.58513 37.674643 17.653495 37.137864 17.6875 36.59375 C 17.69885 36.378376 17.773291 36.198837 18 36.1875 z M 15.71875 36.4375 C 16.104163 36.42615 16.039833 36.793201 16.0625 37.03125 C 16.243869 38.776931 16.420956 40.530665 16.625 42.59375 C 16.67034 43.636623 16.371935 44.963568 16.28125 46.3125 C 16.23591 47.026646 16.141854 47.754611 16.0625 48.46875 C 16.03987 48.684124 16.067376 48.980088 15.75 48.96875 C 15.443934 48.9574 15.460168 48.664211 15.4375 48.4375 C 15.267461 46.612471 15.039522 44.793787 14.9375 42.96875 C 14.89216 42.050567 15.045653 41.148264 15.125 40.21875 C 15.21569 39.153203 15.335478 38.065554 15.4375 37 C 15.46013 36.761958 15.378676 36.44883 15.71875 36.4375 z M 20.34375 36.59375 C 20.661153 36.59375 20.696083 36.875614 20.71875 37.125 C 20.90012 39.018046 21.068624 40.916699 21.25 42.84375 C 21.102636 44.464735 20.959872 46.094996 20.8125 47.75 C 20.78987 48.044721 20.78406 48.350191 20.75 48.65625 C 20.71602 48.928304 20.729201 49.30117 20.34375 49.3125 C 19.947014 49.32385 19.928917 48.970884 19.90625 48.6875 C 19.81556 47.633282 19.803622 46.574122 19.65625 45.53125 C 19.270844 42.731351 19.724876 39.964725 19.90625 37.1875 C 19.92888 36.915447 19.946982 36.59375 20.34375 36.59375 z M 13.5 37.4375 C 13.738049 37.4375 13.727325 37.622549 13.75 37.78125 C 13.942707 39.334226 14.210478 40.884518 14.3125 42.4375 C 14.414515 44.001806 13.991107 45.540768 13.84375 47.09375 C 13.82112 47.28645 13.78401 47.474888 13.75 47.65625 C 13.72737 47.826289 13.726756 48.019913 13.5 48.03125 C 13.273288 48.0426 13.241425 47.857531 13.21875 47.6875 L 13 45.59375 C 12.897978 44.66423 12.789514 43.744775 12.6875 42.78125 C 12.868869 41.137583 13.037381 39.478835 13.21875 37.8125 C 13.24145 37.653806 13.261984 37.4375 13.5 37.4375 z M 11.3125 39.40625 C 11.505206 39.38362 11.571083 39.528806 11.59375 39.6875 C 11.775119 40.719043 11.935048 41.758283 12.09375 42.8125 C 11.935048 43.832698 11.763789 44.86337 11.59375 45.90625 C 11.57112 46.053614 11.482526 46.178917 11.3125 46.15625 C 11.142468 46.13362 11.147667 45.979777 11.125 45.84375 C 10.909618 44.222758 10.552094 42.612417 10.9375 40.96875 C 11.02819 40.572007 11.037078 40.169418 11.09375 39.75 C 11.11638 39.591305 11.119761 39.417595 11.3125 39.40625 z "
       transform="translate(24.785719,11.32369)"
       id="path2997" />
  </g>
</svg>
