<?xml version="1.0" encoding="UTF-8" standalone="no"?>
<!-- Created with Inkscape (http://www.inkscape.org/) -->

<svg
   xmlns:dc="http://purl.org/dc/elements/1.1/"
   xmlns:cc="http://creativecommons.org/ns#"
   xmlns:rdf="http://www.w3.org/1999/02/22-rdf-syntax-ns#"
   xmlns:svg="http://www.w3.org/2000/svg"
   xmlns="http://www.w3.org/2000/svg"
   xmlns:sodipodi="http://sodipodi.sourceforge.net/DTD/sodipodi-0.dtd"
   xmlns:inkscape="http://www.inkscape.org/namespaces/inkscape"
   width="79"
   height="79"
   id="svg2"
   inkscape:label="Pozadí"
   version="1.1"
   inkscape:version="0.48.5 r10040"
   sodipodi:docname="sound.svg">
  <defs
     id="defs3009" />
  <sodipodi:namedview
     id="base"
     pagecolor="#ffffff"
     bordercolor="#666666"
     borderopacity="1.0"
     inkscape:pageopacity="0.0"
     inkscape:pageshadow="2"
     inkscape:zoom="3.959798"
     inkscape:cx="-21.68205"
     inkscape:cy="51.855275"
     inkscape:document-units="px"
     inkscape:current-layer="layer1"
     showgrid="false"
     fit-margin-top="0"
     fit-margin-left="0"
     fit-margin-right="0"
     fit-margin-bottom="0"
     inkscape:window-width="1920"
     inkscape:window-height="1017"
     inkscape:window-x="-8"
     inkscape:window-y="-8"
     inkscape:window-maximized="1" />
  <metadata
     id="metadata3012">
    <rdf:RDF>
      <cc:Work
         rdf:about="">
        <dc:format>image/svg+xml</dc:format>
        <dc:type
           rdf:resource="http://purl.org/dc/dcmitype/StillImage" />
        <dc:title />
      </cc:Work>
    </rdf:RDF>
  </metadata>
  <g
     inkscape:label="Vrstva 1"
     inkscape:groupmode="layer"
     id="layer1"
     transform="translate(-24.785719,-11.32369)">
    <g
       id="g3086"
       transform="matrix(0.72768881,0,0,0.72768881,349.12391,272.08856)">
      <path
         d="m -389.66059,-307.10385 c 0,-4.95365 0,-9.90731 0,-14.87656 0,-1.18389 0.0779,-1.27736 1.18389,-1.71352 9.33095,-3.64515 20.29754,2.13412 22.57187,11.88566 0.15577,0.68541 0.28039,1.37083 0.38943,2.05624 0.0623,0.42059 0.15578,0.57637 0.63869,0.40501 5.51445,-1.97834 11.43392,1.46429 12.72685,7.11894 1.21505,5.26521 -2.72607,11.02891 -8.08475,11.63643 -0.66983,0.0779 -1.33966,0.10905 -2.02507,0.10905 -8.53651,0 -17.073,0 -25.60949,-0.0156 -1.49545,0 -1.77584,-0.2804 -1.77584,-1.77584 -0.0156,-4.90692 -0.0156,-9.87617 -0.0156,-14.82983 z"
         id="path5"
         inkscape:connector-curvature="0"
         style="fill:#f67b10" />
      <path
         d="m -392.96303,-309.92338 c 0.0779,-3.73861 0.15577,-7.46165 0.23367,-11.20026 0.0156,-0.84118 0.40501,-1.33967 1.05927,-1.33967 0.65425,0 1.07485,0.46733 1.09042,1.3241 0.12462,5.45213 0.20251,10.8887 0.37387,16.34084 0.12462,4.25267 -0.0311,8.50533 -0.34271,12.74244 -0.0156,0.2025 -0.0156,0.42058 -0.0623,0.6231 -0.12463,0.6231 -0.51406,0.9658 -1.15274,0.90349 -0.60752,-0.0623 -0.91908,-0.45175 -0.95023,-1.0437 -0.17135,-3.78534 -0.54521,-7.5551 -0.40501,-11.34044 0.0779,-2.33664 0.0156,-4.67327 0.0156,-6.99433 0.0311,-0.0156 0.0935,-0.0156 0.14019,-0.0156 z"
         id="path7"
         inkscape:connector-curvature="0"
         style="fill:#f67d13" />
      <path
         d="m -393.75749,-308.00735 c 0.29597,5.46772 0.17136,10.93544 -0.2025,16.40316 -0.0467,0.66984 -0.34271,1.09043 -1.02812,1.12159 -0.57637,0.0311 -0.95023,-0.43618 -1.01254,-1.15275 -0.59195,-8.03801 -0.18693,-16.06044 -0.0467,-24.09845 0.0156,-1.16832 0.0312,-2.33664 0.0467,-3.50495 0.0156,-0.85677 0.40501,-1.3864 1.02811,-1.37083 0.60753,0.0156 0.99697,0.52964 0.99697,1.40198 0,3.73861 0,7.46164 0,11.20025 0.0779,0 0.15578,0 0.21808,0 z"
         id="path9"
         inkscape:connector-curvature="0"
         style="fill:#f67d13" />
      <path
         d="m -396.90415,-307.38425 c 0,2.46126 0.0623,4.93809 -0.0156,7.39934 -0.0935,2.85069 -0.29597,5.70139 -0.45174,8.55208 -0.0311,0.57636 -0.34271,0.93464 -0.93465,0.93464 -0.62311,-0.0156 -0.91908,-0.40501 -0.95024,-1.01254 -0.10904,-1.91603 -0.23366,-3.83207 -0.29597,-5.74811 -0.2025,-6.34006 0.24925,-12.64897 0.31156,-18.98903 0,-0.65425 0.45174,-1.13716 0.98138,-1.05927 0.60752,0.0779 0.88792,0.45175 0.9035,1.07485 0.0779,2.95974 0.17135,5.91947 0.24924,8.86363 0.0623,0 0.12462,-0.0156 0.20251,-0.0156 z"
         id="path11"
         inkscape:connector-curvature="0"
         style="fill:#f67d13" />
      <path
         d="m -402.51207,-307.97619 c 0,-2.88185 0,-5.76369 0,-8.62996 0,-0.23366 0.0156,-0.46733 0.0935,-0.68541 0.12462,-0.38944 0.42059,-0.57637 0.84119,-0.56079 0.42059,0.0156 0.68541,0.23366 0.77888,0.6231 0.0623,0.21809 0.0623,0.46732 0.0623,0.70099 0.17135,5.57676 0.42059,11.15352 0.46732,16.73028 0.0311,2.74165 -0.29597,5.4833 -0.46732,8.22494 -0.0311,0.56079 -0.18693,1.05928 -0.87235,1.05928 -0.71656,0 -0.85676,-0.51406 -0.90349,-1.12159 -0.38944,-5.31194 -0.48291,-10.62388 -0.20251,-15.93582 0,-0.12462 0,-0.26482 0,-0.38944 0.0623,-0.0156 0.12462,-0.0156 0.20251,-0.0156 z"
         id="path13"
         inkscape:connector-curvature="0"
         style="fill:#f67d13" />
      <path
         d="m -403.92962,-307.4154 c 0.21808,3.73861 0.52963,7.46165 0.18693,11.20026 -0.1402,1.52659 -0.21809,3.0532 -0.31156,4.57979 -0.0311,0.54522 -0.10904,1.09044 -0.81002,1.10601 -0.71657,0.0156 -0.79446,-0.51406 -0.84119,-1.07485 -0.46733,-5.43656 -0.48291,-10.88871 -0.24924,-16.32526 0.12461,-3.03763 0.17135,-6.07525 0.26482,-9.11287 0.0156,-0.2804 -0.0156,-0.57637 0.14019,-0.84119 0.18694,-0.32713 0.49848,-0.46732 0.85677,-0.37386 0.48291,0.12462 0.6231,0.49848 0.63867,0.95023 0.0467,1.60449 0.12463,3.22455 0.14021,4.82904 0,1.69795 -0.0156,3.38033 -0.0156,5.0627 z"
         id="path15"
         inkscape:connector-curvature="0"
         style="fill:#f67d13" />
      <path
         d="m -409.24157,-305.28128 c 0.12462,-4.34613 0.23366,-7.78877 0.34271,-11.2314 0,-0.0467 0,-0.10904 0,-0.15578 -0.0156,-0.51406 0.18693,-0.91908 0.70099,-0.95023 0.59195,-0.0312 0.77888,0.42059 0.79445,0.93465 0.0467,1.16831 0.0935,2.33663 0.10905,3.50495 0.10904,4.84461 0.49848,9.68923 0.38944,14.53385 -0.0467,2.38336 -0.31155,4.75115 -0.49849,7.13451 -0.0311,0.46733 -0.10904,0.98139 -0.76329,0.98139 -0.68542,0 -0.73215,-0.51406 -0.7633,-1.0437 -0.32713,-4.86019 -0.71657,-9.72038 -0.31156,-13.70824 z"
         id="path17"
         inkscape:connector-curvature="0"
         style="fill:#f67d13" />
      <path
         d="m -412.35708,-307.135 c 0.0779,-2.58588 0.17136,-5.18732 0.26482,-7.7732 0,-0.2025 0.0311,-0.42059 0.0467,-0.6231 0.0467,-0.40501 0.24924,-0.70099 0.68541,-0.68541 0.38944,0.0156 0.59195,0.2804 0.60753,0.66983 0.0779,1.5266 0.15578,3.0532 0.21809,4.5798 0.15577,3.75419 0.38943,7.50838 0.43617,11.27815 0.0156,2.08739 -0.29597,4.19036 -0.45175,6.27774 -0.0467,0.57638 -0.0467,1.13717 -0.12462,1.69796 -0.0623,0.4829 0.0623,1.16832 -0.70099,1.16832 -0.7633,0.0156 -0.68541,-0.66984 -0.73214,-1.15274 -0.14021,-1.71354 -0.20252,-3.41149 -0.35829,-5.12502 -0.32713,-3.42706 0.0467,-6.86969 0.10904,-10.31233 z"
         id="path19"
         inkscape:connector-curvature="0"
         style="fill:#f67d13" />
      <path
         d="m -413.30731,-299.4397 c -0.15577,1.82258 -0.32713,4.01901 -0.51405,6.21545 -0.0623,0.70098 -0.12462,1.38639 -0.20251,2.08739 -0.0311,0.35828 -0.20251,0.59195 -0.57637,0.60752 -0.38944,0.0156 -0.56079,-0.24924 -0.60753,-0.57636 -0.0779,-0.79447 -0.10904,-1.60449 -0.2025,-2.39895 -0.62311,-5.28079 -0.20251,-10.57715 0.0467,-15.85794 0.0467,-0.98139 0.0779,-1.96277 0.1402,-2.95973 0.0156,-0.40503 0.0935,-0.82561 0.6231,-0.82561 0.54522,0 0.57637,0.42058 0.60753,0.82561 0.12462,2.18085 0.26482,4.34613 0.37386,6.52699 0.10905,1.99392 0.2025,3.98784 0.31155,6.35563 z"
         id="path21"
         inkscape:connector-curvature="0"
         style="fill:#f67d13" />
      <path
         d="m -416.5007,-299.47085 c -0.20251,2.22758 -0.40501,4.48633 -0.60753,6.76066 -0.0311,0.40501 -0.0467,0.82561 -0.0935,1.2462 -0.0467,0.37386 -0.0311,0.85677 -0.56079,0.87234 -0.5452,0.0156 -0.56079,-0.45175 -0.59194,-0.84118 -0.12462,-1.44872 -0.15577,-2.89743 -0.35829,-4.33056 -0.52963,-3.84766 0.10905,-7.64858 0.35829,-11.46508 0.0311,-0.37386 0.0467,-0.84119 0.59194,-0.84119 0.43618,0 0.51407,0.38944 0.54522,0.73215 0.24924,2.60145 0.46732,5.21848 0.71657,7.86666 z"
         id="path23"
         inkscape:connector-curvature="0"
         style="fill:#f67d13" />
      <path
         d="m -419.67852,-299.53316 c -0.26482,2.75723 -0.51406,5.53003 -0.77888,8.28725 -0.0311,0.29597 -0.17135,0.51406 -0.4829,0.51406 -0.37386,0 -0.43618,-0.2804 -0.46733,-0.59194 -0.18692,-2.16528 -0.3427,-4.34614 -0.56079,-6.51142 -0.26482,-2.67933 0.24924,-5.32752 0.37387,-7.99128 0.0311,-0.74772 0.14019,-1.49544 0.18692,-2.24317 0.0156,-0.29597 0.10905,-0.52963 0.42059,-0.54521 0.34272,-0.0156 0.49848,0.23367 0.51407,0.56079 0.28039,2.83511 0.52963,5.67023 0.79445,8.52092 z"
         id="path25"
         inkscape:connector-curvature="0"
         style="fill:#f67d13" />
      <path
         d="m -422.87191,-299.82913 c 0.0623,1.43313 -0.34272,3.28686 -0.46734,5.14058 -0.0623,0.98139 -0.18692,1.96278 -0.29597,2.94416 -0.0311,0.29597 -0.0156,0.70099 -0.45174,0.68541 -0.4206,-0.0156 -0.37387,-0.40501 -0.40502,-0.71656 -0.23367,-2.50798 -0.52964,-5.00039 -0.66984,-7.50838 -0.0623,-1.26178 0.1402,-2.52357 0.24924,-3.80092 0.12462,-1.46429 0.2804,-2.94415 0.4206,-4.40845 0.0311,-0.32712 -0.0779,-0.77888 0.38943,-0.79445 0.52964,-0.0156 0.45176,0.49848 0.48291,0.82561 0.24924,2.39894 0.46733,4.79788 0.74773,7.633 z"
         id="path27"
         inkscape:connector-curvature="0"
         style="fill:#f67d13" />
      <path
         d="m -428.27732,-299.56431 c 0.24924,-2.25875 0.49848,-4.54865 0.74772,-6.83855 0.0312,-0.21808 0.0312,-0.51406 0.35828,-0.51406 0.32713,0 0.32713,0.2804 0.35829,0.49849 0.26482,2.13412 0.6231,4.26824 0.7633,6.40237 0.14019,2.14969 -0.45176,4.26824 -0.65426,6.40237 -0.0311,0.26481 -0.0623,0.51406 -0.10904,0.76329 -0.0311,0.23367 -0.0311,0.51406 -0.34271,0.52964 -0.31155,0.0156 -0.3427,-0.26482 -0.37386,-0.49848 -0.10905,-0.95023 -0.21809,-1.90046 -0.32713,-2.85069 -0.1402,-1.27736 -0.2804,-2.57029 -0.42059,-3.89438 z"
         id="path29"
         inkscape:connector-curvature="0"
         style="fill:#f67d13" />
      <path
         d="m -429.10293,-299.53316 c -0.21809,1.40197 -0.45175,2.83511 -0.68542,4.26825 -0.0311,0.20251 -0.12462,0.35828 -0.35828,0.32713 -0.23366,-0.0311 -0.26482,-0.21809 -0.29597,-0.40502 -0.29598,-2.22759 -0.77888,-4.4396 -0.24925,-6.69835 0.12462,-0.54521 0.15578,-1.12158 0.23366,-1.69795 0.0311,-0.21808 0.0467,-0.45174 0.31156,-0.46733 0.26482,-0.0311 0.32713,0.18694 0.35828,0.40502 0.24924,1.41756 0.46733,2.81953 0.68542,4.26825 z"
         id="path31"
         inkscape:connector-curvature="0"
         style="fill:#f67d13" />
    </g>
  </g>
</svg>
