<?xml version="1.0" encoding="UTF-8" standalone="no"?>
<!-- Created with Inkscape (http://www.inkscape.org/) -->

<svg
   xmlns:dc="http://purl.org/dc/elements/1.1/"
   xmlns:cc="http://creativecommons.org/ns#"
   xmlns:rdf="http://www.w3.org/1999/02/22-rdf-syntax-ns#"
   xmlns:svg="http://www.w3.org/2000/svg"
   xmlns="http://www.w3.org/2000/svg"
   xmlns:sodipodi="http://sodipodi.sourceforge.net/DTD/sodipodi-0.dtd"
   xmlns:inkscape="http://www.inkscape.org/namespaces/inkscape"
   width="79.375"
   height="79.375"
   id="svg2"
   inkscape:label="Pozadí"
   version="1.1"
   inkscape:version="0.48.5 r10040"
   sodipodi:docname="yt.svg">
  <defs
     id="defs6312">
    <clipPath
       id="clipPath4614"
       clipPathUnits="userSpaceOnUse">
      <path
         inkscape:connector-curvature="0"
         id="path4616"
         d="M 0,600 1200,600 1200,0 0,0 0,600 z" />
    </clipPath>
    <clipPath
       id="clipPath4626"
       clipPathUnits="userSpaceOnUse">
      <path
         inkscape:connector-curvature="0"
         id="path4628"
         d="m 901.196,462.617 8.105,0 0,-4.746 -8.105,0 0,4.746 z" />
    </clipPath>
  </defs>
  <sodipodi:namedview
     id="base"
     pagecolor="#ffffff"
     bordercolor="#666666"
     borderopacity="1.0"
     inkscape:pageopacity="0.0"
     inkscape:pageshadow="2"
     inkscape:zoom="7.919596"
     inkscape:cx="30.216959"
     inkscape:cy="37.7877"
     inkscape:document-units="px"
     inkscape:current-layer="layer1"
     showgrid="false"
     fit-margin-top="0"
     fit-margin-left="0"
     fit-margin-right="0"
     fit-margin-bottom="0"
     inkscape:window-width="1920"
     inkscape:window-height="1017"
     inkscape:window-x="-8"
     inkscape:window-y="-8"
     inkscape:window-maximized="1" />
  <metadata
     id="metadata6315">
    <rdf:RDF>
      <cc:Work
         rdf:about="">
        <dc:format>image/svg+xml</dc:format>
        <dc:type
           rdf:resource="http://purl.org/dc/dcmitype/StillImage" />
        <dc:title></dc:title>
      </cc:Work>
    </rdf:RDF>
  </metadata>
  <g
     inkscape:label="Vrstva 1"
     inkscape:groupmode="layer"
     id="layer1"
     transform="translate(-335.31187,-492.67465)">
    <path
       style="fill:#f9f7ff;fill-opacity:0.94117647;stroke:none"
       d="M 39.6875 0 C 17.77281 -2.3129646e-018 1.0593686e-017 17.769819 0 39.6875 C 0 61.605181 17.77281 79.375 39.6875 79.375 C 61.60219 79.375 79.375 61.605181 79.375 39.6875 C 79.375 17.769819 61.60219 1.0595133e-017 39.6875 0 z M 39.6875 26.5 C 39.6875 26.5 47.5625 26.4975 52.8125 26.875 C 53.5425 26.9625 55.13625 26.975 56.5625 28.46875 C 57.685 29.60625 58.0625 32.1875 58.0625 32.1875 C 58.0625 32.1875 58.4375 35.21375 58.4375 38.25 L 58.4375 41.09375 C 58.4375 44.13 58.0625 47.1875 58.0625 47.1875 C 58.0625 47.1875 57.685 49.76875 56.5625 50.90625 C 55.13625 52.4 53.5425 52.4125 52.8125 52.5 C 47.5625 52.8762 39.6875 52.875 39.6875 52.875 C 39.6875 52.875 29.93875 52.78875 26.9375 52.5 C 26.105 52.345 24.23875 52.4 22.8125 50.90625 C 21.6875 49.76875 21.3125 47.1875 21.3125 47.1875 C 21.3125 47.1875 20.9375 44.13 20.9375 41.09375 L 20.9375 38.25 C 20.9375 35.21375 21.3125 32.1875 21.3125 32.1875 C 21.3125 32.1875 21.6875 29.60625 22.8125 28.46875 C 24.23875 26.975 25.82875 26.9625 26.5625 26.875 C 31.80875 26.4975 39.6875 26.5 39.6875 26.5 z M 35.8125 34 L 35.8125 44.5625 L 45.9375 39.3125 L 35.8125 34 z "
       transform="translate(335.31187,492.67465)"
       id="path2994" />
    <g
       id="g4622"
       transform="matrix(1.25,0,0,-1.25,-755.368,1104.9604)">
      <g
         id="g4624" />
      <g
         id="g4630">
        <g
           style="opacity:0.119995"
           clip-path="url(#clipPath4626)"
           id="g4632">
          <g
             transform="translate(901.1963,462.6167)"
             id="g4634">
            <path
               inkscape:connector-curvature="0"
               d="M 0,0 7.108,-4.746 8.104,-4.23 0,0 z"
               style="fill:#000000;fill-opacity:1;fill-rule:evenodd;stroke:none"
               id="path4636" />
          </g>
        </g>
      </g>
    </g>
  </g>
</svg>
