<?xml version="1.0" encoding="UTF-8" standalone="no"?>
<!-- Created with Inkscape (http://www.inkscape.org/) -->

<svg
   xmlns:dc="http://purl.org/dc/elements/1.1/"
   xmlns:cc="http://creativecommons.org/ns#"
   xmlns:rdf="http://www.w3.org/1999/02/22-rdf-syntax-ns#"
   xmlns:svg="http://www.w3.org/2000/svg"
   xmlns="http://www.w3.org/2000/svg"
   xmlns:sodipodi="http://sodipodi.sourceforge.net/DTD/sodipodi-0.dtd"
   xmlns:inkscape="http://www.inkscape.org/namespaces/inkscape"
   width="79.375"
   height="79.375"
   id="svg2"
   inkscape:label="Pozadí"
   version="1.1"
   inkscape:version="0.48.5 r10040"
   sodipodi:docname="Nový dokument 6">
  <defs
     id="defs6312">
    <clipPath
       id="clipPath4614"
       clipPathUnits="userSpaceOnUse">
      <path
         inkscape:connector-curvature="0"
         id="path4616"
         d="M 0,600 1200,600 1200,0 0,0 0,600 z" />
    </clipPath>
    <clipPath
       id="clipPath4626"
       clipPathUnits="userSpaceOnUse">
      <path
         inkscape:connector-curvature="0"
         id="path4628"
         d="m 901.196,462.617 8.105,0 0,-4.746 -8.105,0 0,4.746 z" />
    </clipPath>
  </defs>
  <sodipodi:namedview
     id="base"
     pagecolor="#ffffff"
     bordercolor="#666666"
     borderopacity="1.0"
     inkscape:pageopacity="0.0"
     inkscape:pageshadow="2"
     inkscape:zoom="3.959798"
     inkscape:cx="3.0120011"
     inkscape:cy="-0.7120832"
     inkscape:document-units="px"
     inkscape:current-layer="layer1"
     showgrid="false"
     fit-margin-top="0"
     fit-margin-left="0"
     fit-margin-right="0"
     fit-margin-bottom="0"
     inkscape:window-width="1920"
     inkscape:window-height="1017"
     inkscape:window-x="-8"
     inkscape:window-y="-8"
     inkscape:window-maximized="1" />
  <metadata
     id="metadata6315">
    <rdf:RDF>
      <cc:Work
         rdf:about="">
        <dc:format>image/svg+xml</dc:format>
        <dc:type
           rdf:resource="http://purl.org/dc/dcmitype/StillImage" />
        <dc:title></dc:title>
      </cc:Work>
    </rdf:RDF>
  </metadata>
  <g
     inkscape:label="Vrstva 1"
     inkscape:groupmode="layer"
     id="layer1"
     transform="translate(-335.31187,-492.67465)">
    <g
       id="g4622"
       transform="matrix(1.25,0,0,-1.25,-755.368,1104.9604)">
      <g
         id="g4624" />
      <g
         id="g4630">
        <g
           style="opacity:0.119995"
           clip-path="url(#clipPath4626)"
           id="g4632">
          <g
             transform="translate(901.1963,462.6167)"
             id="g4634">
            <path
               inkscape:connector-curvature="0"
               d="M 0,0 7.108,-4.746 8.104,-4.23 0,0 z"
               style="fill:#000000;fill-opacity:1;fill-rule:evenodd;stroke:none"
               id="path4636" />
          </g>
        </g>
      </g>
    </g>
    <g
       id="g4638"
       transform="matrix(1.25,0,0,-1.25,371.12975,537.22665)">
      <path
         inkscape:connector-curvature="0"
         d="M 0,0 -0.002,8.43 8.103,4.199 0,0 z m 17.796,9.891 c 0,0 -0.295,2.067 -1.193,2.977 -1.141,1.195 -2.42,1.201 -3.004,1.271 -4.2,0.302 -10.496,0.302 -10.496,0.302 l -0.014,0 c 0,0 -6.297,0 -10.494,-0.302 -0.587,-0.07 -1.865,-0.076 -3.006,-1.271 -0.9,-0.91 -1.193,-2.977 -1.193,-2.977 0,0 -0.299,-2.428 -0.299,-4.857 l 0,-2.275 c 0,-2.429 0.299,-4.857 0.299,-4.857 0,0 0.293,-2.067 1.193,-2.977 1.141,-1.195 2.641,-1.157 3.307,-1.281 2.401,-0.231 10.201,-0.302 10.201,-0.302 0,0 6.302,0.011 10.502,0.312 0.584,0.07 1.863,0.076 3.004,1.271 0.898,0.91 1.193,2.977 1.193,2.977 0,0 0.301,2.428 0.301,4.857 l 0,2.275 c 0,2.429 -0.301,4.857 -0.301,4.857"
         style="fill:#d93c37;fill-opacity:1;fill-rule:nonzero;stroke:none"
         id="path4640" />
    </g>
  </g>
</svg>
