<?xml version="1.0" encoding="UTF-8" standalone="no"?>
<!-- Created with Inkscape (http://www.inkscape.org/) -->

<svg
   xmlns:dc="http://purl.org/dc/elements/1.1/"
   xmlns:cc="http://creativecommons.org/ns#"
   xmlns:rdf="http://www.w3.org/1999/02/22-rdf-syntax-ns#"
   xmlns:svg="http://www.w3.org/2000/svg"
   xmlns="http://www.w3.org/2000/svg"
   xmlns:sodipodi="http://sodipodi.sourceforge.net/DTD/sodipodi-0.dtd"
   xmlns:inkscape="http://www.inkscape.org/namespaces/inkscape"
   width="182.85962"
   height="72.391388"
   id="svg2"
   inkscape:label="Pozadí"
   version="1.1"
   inkscape:version="0.48.5 r10040"
   sodipodi:docname="Nový dokument 8">
  <defs
     id="defs4708" />
  <sodipodi:namedview
     id="base"
     pagecolor="#ffffff"
     bordercolor="#666666"
     borderopacity="1.0"
     inkscape:pageopacity="0.0"
     inkscape:pageshadow="2"
     inkscape:zoom="0.35"
     inkscape:cx="-164.99876"
     inkscape:cy="50.481405"
     inkscape:document-units="px"
     inkscape:current-layer="layer1"
     showgrid="false"
     fit-margin-top="0"
     fit-margin-left="0"
     fit-margin-right="0"
     fit-margin-bottom="0"
     inkscape:window-width="530"
     inkscape:window-height="423"
     inkscape:window-x="78"
     inkscape:window-y="78"
     inkscape:window-maximized="0" />
  <metadata
     id="metadata4711">
    <rdf:RDF>
      <cc:Work
         rdf:about="">
        <dc:format>image/svg+xml</dc:format>
        <dc:type
           rdf:resource="http://purl.org/dc/dcmitype/StillImage" />
        <dc:title></dc:title>
      </cc:Work>
    </rdf:RDF>
  </metadata>
  <g
     inkscape:label="Vrstva 1"
     inkscape:groupmode="layer"
     id="layer1"
     transform="translate(-539.99876,-510.4522)">
    <g
       transform="matrix(1.25,0,0,-1.25,513.9649,664.28391)"
       id="g4049">
      <path
         d="m 133.1592,68.6729 0.109,-0.072 0.011,0.124 -0.12,-0.052 z m -13.419,28.067 c -0.91,-0.908 -0.747,-1.836 -0.992,-2.601 -0.25,-0.781 -0.7,-1.669 0.301,-2.619 0.921,1.642 1.117,3.194 0.691,5.22 m -3.19,-4.059 c 0.198,3.14 1.432,6.138 1.025,9.315 -1.66,-2.95 -2.179,-6.045 -1.025,-9.315 m 26.317,-27.085 c -0.798,-0.342 -1.596,-0.218 -2.379,-0.097 -1.117,0.174 -2.241,0.291 -3.36,0.192 -1.04,-0.092 -1.794,0.181 -2.328,1.18 -0.26,0.489 -0.553,1.033 -1.252,1.311 -0.396,-0.92 0.562,-1.701 0.195,-2.651 -1.051,-0.062 -2.15,-0.126 -3.365,-0.197 -2.492,5.526 -3.454,11.605 -6.013,17.161 -1.251,0.118 -2.531,0.281 -4.098,0.1 0.184,-5.604 0.345,-11.162 1.251,-16.874 -3.957,-0.271 -7.584,0.07 -11.235,0.568 -0.206,3.437 -0.347,6.748 -0.616,10.048 -0.334,4.101 -0.024,8.234 -0.603,12.319 -0.046,0.324 -0.018,0.662 -0.09,0.975 -1.207,5.254 -0.871,10.631 -1.19,15.956 -0.225,3.78 -0.531,7.555 -0.833,11.329 -0.146,1.818 -0.327,3.628 -0.075,5.696 1.995,0 3.971,0.016 5.946,-0.003 2.056,-0.02 4.116,-0.18 6.165,-0.072 1.279,0.069 1.941,-0.433 2.468,-1.566 0.63,-1.354 1.271,-2.697 1.703,-4.134 1.465,-4.872 3.505,-9.501 5.484,-14.153 0.993,-2.332 1.872,-4.699 2.617,-7.128 1.719,-5.605 3.846,-11.038 6.283,-16.344 1.948,-4.24 3.636,-8.6 5.27,-12.981 0.063,-0.168 0.035,-0.374 0.055,-0.635"
         style="fill:#ffce00;fill-opacity:1;fill-rule:nonzero;stroke:none"
         id="path86"
         inkscape:connector-curvature="0" />
      <path
         d="m 76.9316,107.9639 c -0.443,-1.832 -1.363,-3.68 0.232,-5.862 0.274,2.244 0.342,4.063 -0.232,5.862 m 0.901,-26.466 c 0.15,3.478 -0.059,6.904 -1.989,10.343 -0.642,-3.978 0.428,-7.196 1.989,-10.343 m -22.507,14.146 c -0.175,-4.644 0.671,-9.199 1.095,-13.789 1.89,4.795 0.142,9.269 -1.095,13.789 m 29.457,-28.613 c -0.452,-0.433 -0.832,-0.465 -1.2,-0.382 -1.55,0.349 -3.085,0.338 -4.642,-0.005 -0.972,-0.215 -1.732,0.01 -2.323,1.085 -1.4,2.545 -2.88,5.041 -3.977,7.752 -0.687,1.697 -1.682,3.203 -2.555,4.787 -0.195,0.354 -0.421,0.687 -0.842,0.674 -2.044,-0.07 -4.1,0.197 -6.249,-0.104 -0.038,-5.224 0.986,-10.218 1.469,-15.353 -3.84,-0.672 -7.532,-0.149 -11.122,0.039 -0.463,0.438 -0.497,0.905 -0.512,1.359 -0.032,0.979 -0.094,1.964 -0.038,2.939 0.336,5.886 -0.133,11.759 -0.173,17.636 -0.034,5.01 -0.88,9.876 -1.589,14.78 -0.486,3.362 -0.743,6.74 -0.709,10.144 0.012,1.295 -0.108,2.592 -0.18,4.14 2.652,-0.163 5.187,-0.05 7.828,-0.486 2.123,-6.167 4.25,-12.342 6.412,-18.619 2.308,0.45 4.475,-0.026 6.765,0.036 0.225,1.24 0.04,2.368 -0.13,3.512 -0.633,4.26 -1.453,8.491 -1.753,12.8 -0.049,0.716 -0.133,1.433 0.099,2.365 3.316,0.489 6.716,0.335 10.245,0.348 0.441,-2.696 0.884,-5.314 1.293,-7.937 0.897,-5.746 1.302,-11.552 1.935,-17.329 0.413,-3.771 0.346,-7.581 0.826,-11.329 0.414,-3.238 0.692,-6.489 1.096,-9.727 0.13,-1.038 0.178,-2.076 0.026,-3.125"
         style="fill:#ffce00;fill-opacity:1;fill-rule:nonzero;stroke:none"
         id="path90"
         inkscape:connector-curvature="0" />
      <path
         d="m 33.1792,111.8027 c -0.854,1.277 -1.632,0.83 -2.197,0.457 -1.915,-1.264 -3.551,-2.825 -4.222,-5.215 -0.082,-0.294 -0.233,-0.592 0.183,-1.08 1.361,2.722 2.898,5.233 6.236,5.838 m -6.229,-35.466 c -0.02,0.045 -0.031,0.099 -0.062,0.131 -0.017,0.019 -0.067,0.001 -0.102,0 0.057,-0.04 0.114,-0.081 0.171,-0.122 0.368,-2.896 2.022,-4.469 5.322,-4.627 -2.195,0.772 -3.347,2.171 -4.392,3.705 -0.246,0.361 -0.509,0.741 -0.937,0.913 m 19.048,23.153 c -1.288,-0.216 -2.386,-0.17 -3.522,0.067 -0.41,1.273 -0.151,2.663 -0.989,3.987 -0.495,-1.343 -0.074,-2.579 -0.386,-3.749 -0.378,-0.439 -0.835,-0.41 -1.335,-0.18 -0.357,0.862 -0.258,1.797 -0.413,2.688 -0.47,2.701 -1.957,3.896 -4.285,3.499 -0.856,-0.145 -1.49,-0.62 -2.029,-1.288 -0.948,-1.175 -1.57,-2.524 -1.831,-4.027 -0.681,-3.924 -1.25,-7.869 -1.127,-11.872 0.098,-3.172 0.915,-6.19 2.145,-9.066 0.888,-2.077 1.895,-2.562 4.05,-2.235 1.997,0.304 3.667,1.137 4.731,3.07 0.52,0.944 0.985,1.972 1.949,2.611 1.543,-0.519 3.087,-1.005 4.608,-1.564 1.014,-0.372 1.691,-1.018 1.532,-2.325 -0.561,-4.606 -2.078,-8.726 -5.51,-11.842 -1.052,-0.955 -2.353,-1.465 -3.768,-1.578 -2.939,-0.237 -5.89,-0.22 -8.749,0.52 -2.708,0.701 -5.114,2.033 -6.567,4.758 -0.79,1.482 -1.712,2.884 -2.41,4.424 -0.942,2.074 -0.944,4.328 -1.063,6.527 -0.34,6.269 -0.296,12.532 0.481,18.779 0.322,2.587 0.368,5.207 1.255,7.7 1.314,3.692 3.476,6.612 6.817,8.508 1.407,0.797 2.854,1.155 4.498,0.88 1.532,-0.255 3.109,-0.21 4.665,-0.311 1.977,-0.127 3.832,-0.565 5.227,-2.22 0.591,-0.701 1.105,-1.459 1.229,-2.384 0.549,-4.074 1.216,-8.141 0.944,-12.286 -0.021,-0.32 -0.084,-0.637 -0.147,-1.091"
         style="fill:#ffce00;fill-opacity:1;fill-rule:nonzero;stroke:none"
         id="path94"
         inkscape:connector-curvature="0" />
      <path
         d="m 90.8867,91.8398 c 0.933,1.801 0.551,3.392 0.542,4.916 -0.009,1.549 0.344,3.158 -0.354,4.891 -1.389,-3.292 -1.434,-6.36 -0.188,-9.807 m 6.225,-0.169 c 1.162,0.281 1.586,1.212 2.584,1.263 0.56,-1.333 1.13,-2.693 1.73,-4.12 -0.69,-1.178 -1.831,-1.918 -2.691,-2.927 -0.63,-0.738 -0.968,-1.449 -0.906,-2.44 0.064,-1.03 0.014,-2.069 0.014,-3.437 2.759,2.252 5.285,4.393 8.282,6.446 0.021,-7.051 0.348,-13.733 0.96,-20.597 -6.073,-0.282 -12.016,-0.433 -17.882,0.36 -0.389,0.554 -0.321,1.093 -0.316,1.606 0.052,4.588 -0.71,9.109 -1.007,13.659 -0.347,5.34 -1.261,10.626 -1.279,15.994 -0.01,3.07 -0.269,6.13 -0.666,9.178 -0.176,1.353 -0.127,2.739 -0.181,4.109 -0.157,3.973 0.237,7.953 -0.312,12.203 5.943,-0.501 11.692,0.56 17.64,-0.165 0.113,-2.451 0.225,-4.902 0.341,-7.406 -2.199,-0.904 -4.426,-0.364 -6.741,-0.783 -0.131,-7.623 0.372,-15.196 0.43,-22.943"
         style="fill:#ffce00;fill-opacity:1;fill-rule:nonzero;stroke:none"
         id="path98"
         inkscape:connector-curvature="0" />
      <path
         d="m 152.79,100.5703 c -0.495,-2.697 -0.269,-3.261 1.681,-4.378 -0.054,1.64 0.1,3.262 -1.681,4.378 m 0.581,3.766 c 1.399,-1.662 1.936,-3.983 3.776,-5.494 -0.067,3.015 -1.214,4.689 -3.776,5.494 m -8.628,2.307 c -0.143,0.392 -0.443,0.639 -0.775,0.814 -1.012,0.531 -0.942,1.529 -0.78,2.384 0.159,0.837 1.039,0.894 1.7,0.913 2.431,0.067 4.865,0.091 7.297,0.063 3.079,-0.036 6.041,-0.718 8.956,-1.755 3.439,-1.223 5.392,-3.795 5.864,-7.397 0.72,-5.491 -2.052,-13.284 -9.778,-14.326 -0.431,-0.059 -0.849,-0.209 -1.274,-0.31 -0.573,-0.136 -0.842,-0.515 -0.834,-1.119 0.007,-0.588 -0.012,-1.179 0.035,-1.764 0.489,-6.171 0.574,-12.373 1.429,-18.765 -3.485,-0.567 -6.862,0.112 -10.176,0.03 -0.657,0.59 -0.628,1.353 -0.656,2.042 -0.193,4.7 -0.855,9.364 -1.093,14.05 -0.243,4.754 -0.608,9.504 -0.736,14.267 -0.09,3.391 -0.414,6.774 -0.63,10.097 0.288,0.6 0.798,0.372 1.195,0.486 0.166,-0.099 0.337,-0.152 0.468,0.038 0.013,0.021 -0.137,0.165 -0.212,0.252"
         style="fill:#ffce00;fill-opacity:1;fill-rule:nonzero;stroke:none"
         id="path102"
         inkscape:connector-curvature="0" />
      <path
         d="m 26.9575,76.3457 c -0.057,0.041 -0.114,0.082 -0.171,0.122 0.035,0.001 0.085,0.019 0.102,0 0.031,-0.032 0.042,-0.086 0.061,-0.131 l 0.008,0.009 z"
         style="fill:#ffce00;fill-opacity:1;fill-rule:nonzero;stroke:none"
         id="path106"
         inkscape:connector-curvature="0" />
    </g>
  </g>
</svg>
