<?xml version="1.0" encoding="UTF-8" standalone="no"?>
<!-- Created with Inkscape (http://www.inkscape.org/) -->

<svg
   xmlns:dc="http://purl.org/dc/elements/1.1/"
   xmlns:cc="http://creativecommons.org/ns#"
   xmlns:rdf="http://www.w3.org/1999/02/22-rdf-syntax-ns#"
   xmlns:svg="http://www.w3.org/2000/svg"
   xmlns="http://www.w3.org/2000/svg"
   xmlns:sodipodi="http://sodipodi.sourceforge.net/DTD/sodipodi-0.dtd"
   xmlns:inkscape="http://www.inkscape.org/namespaces/inkscape"
   width="173.76613"
   height="78.604874"
   id="svg2"
   inkscape:label="Pozadí"
   version="1.1"
   inkscape:version="0.48.5 r10040"
   sodipodi:docname="Nový dokument 10">
  <defs
     id="defs4753" />
  <sodipodi:namedview
     id="base"
     pagecolor="#ffffff"
     bordercolor="#666666"
     borderopacity="1.0"
     inkscape:pageopacity="0.0"
     inkscape:pageshadow="2"
     inkscape:zoom="0.35"
     inkscape:cx="-52.40265"
     inkscape:cy="125.01672"
     inkscape:document-units="px"
     inkscape:current-layer="layer1"
     showgrid="false"
     fit-margin-top="0"
     fit-margin-left="0"
     fit-margin-right="0"
     fit-margin-bottom="0"
     inkscape:window-width="530"
     inkscape:window-height="423"
     inkscape:window-x="130"
     inkscape:window-y="130"
     inkscape:window-maximized="0" />
  <metadata
     id="metadata4756">
    <rdf:RDF>
      <cc:Work
         rdf:about="">
        <dc:format>image/svg+xml</dc:format>
        <dc:type
           rdf:resource="http://purl.org/dc/dcmitype/StillImage" />
        <dc:title></dc:title>
      </cc:Work>
    </rdf:RDF>
  </metadata>
  <g
     inkscape:label="Vrstva 1"
     inkscape:groupmode="layer"
     id="layer1"
     transform="translate(-427.40265,-578.77403)">
    <g
       transform="matrix(1.25,0,0,-1.25,205.8949,731.71175)"
       id="g4057">
      <g
         transform="translate(204.8052,99.9746)"
         id="g108">
        <path
           inkscape:connector-curvature="0"
           id="path110"
           style="fill:#ffce00;fill-opacity:1;fill-rule:nonzero;stroke:none"
           d="M 0,0 C -0.076,1.511 -0.094,2.583 -1.042,3.393 -1.06,2.31 -1.313,1.16 0,0 m 0.916,4.703 c 0.417,2.486 -0.778,9.258 -1.952,10.819 -0.4,-3.9 0.652,-7.257 1.952,-10.819 M -19.91,22.369 c 1.571,0.06 2.825,-0.299 4.044,-0.738 2.472,-0.891 4.952,-1.336 7.526,-0.52 0.295,0.094 0.615,0.119 0.926,0.138 2.978,0.179 5.991,-0.037 8.921,1.124 0.612,-1.424 0.562,-2.751 0.8,-4.008 C 2.538,17.148 2.836,15.929 2.903,14.698 3.171,9.795 4.084,4.975 4.561,0.106 5.314,-7.581 7.168,-15.065 8.039,-22.729 8.588,-27.568 7.89,-31.974 5.257,-35.985 c -1.872,-2.852 -4.354,-4.578 -7.822,-4.522 -4.509,0.072 -8.871,1.111 -12.886,3.042 -4.076,1.961 -7.383,5.152 -9.323,9.556 -1.092,2.479 -2.252,4.95 -2.825,7.758 0.847,0.543 1.691,0.281 2.616,0.14 0.981,-1.935 2.127,-3.786 4.331,-4.947 -0.153,2.081 -1.276,3.549 -2.338,5.377 3.321,0.545 6.46,1.06 9.806,1.61 0.539,-2.571 2.316,-4.564 2.947,-7.102 0.36,-1.444 1.355,-2.175 2.533,-2.653 1.822,-0.738 3.564,0.317 3.99,2.334 0.258,1.222 0.292,2.472 0.199,3.711 -0.431,5.74 -1.341,11.404 -2.465,17.035 -0.459,2.301 -0.82,4.625 -1.266,6.928 -0.133,0.692 -0.171,1.433 -0.747,2.211 -2.998,-0.613 -5.732,-2.629 -9.131,-2.674 -1.456,6.759 -1.632,13.662 -2.786,20.55" />
      </g>
      <g
         transform="translate(250.6621,107.6621)"
         id="g112">
        <path
           inkscape:connector-curvature="0"
           id="path114"
           style="fill:#ffce00;fill-opacity:1;fill-rule:nonzero;stroke:none"
           d="M 0,0 C -0.082,-3.171 -0.516,-6.346 0.463,-9.435 1.479,-6.229 0.814,-3.101 0,0 m -1.221,-22.312 c -0.151,6.049 -0.571,12.074 -1.358,18.064 -0.738,-6.134 -0.66,-12.19 1.358,-18.064 M 20.153,1.3 c -2.915,-5.514 -6.107,-10.805 -9.124,-15.763 1.744,-2.045 3.427,-4.039 5.138,-6.006 0.375,-0.43 0.905,-0.714 1.28,-1.144 1.644,-1.894 3.439,-3.589 5.737,-4.741 -0.445,-1.473 -1.408,-2.459 -1.987,-3.663 -0.584,-1.212 -0.976,-2.54 -1.958,-3.792 -3.424,2.229 -7.201,3.807 -9.871,7.659 -0.721,-2.583 0.138,-4.637 0.221,-6.706 0.088,-2.215 0.469,-4.416 0.699,-6.625 0.221,-2.133 0.414,-4.269 0.636,-6.572 -4.978,-0.164 -9.874,-0.385 -14.82,0.522 -0.557,1.55 -0.762,3.234 -0.84,4.928 -0.365,7.968 -0.637,15.94 -1.068,23.903 -0.303,5.61 -0.841,11.206 -1.212,16.813 -0.212,3.196 -0.302,6.401 -0.443,9.601 -0.015,0.322 -0.049,0.656 0.296,1.076 l 14.455,0 C 8.124,6.826 7.981,2.716 8.468,-1.37 10.53,1.135 11.334,4.372 13.401,7.079 15.605,5.104 18.09,3.63 20.153,1.3" />
      </g>
      <g
         transform="translate(287.9111,112.8467)"
         id="g116">
        <path
           inkscape:connector-curvature="0"
           id="path118"
           style="fill:#ffce00;fill-opacity:1;fill-rule:nonzero;stroke:none"
           d="M 0,0 C -0.174,-5.052 -0.142,-10.096 0.744,-15.497 2.411,-10.007 1.752,-4.984 0,0 m -1.29,-42.129 c -0.603,0.93 -0.629,1.797 -0.718,2.642 -1.563,14.833 -2.38,29.701 -3.228,44.657 11.042,0.432 21.793,0.656 32.708,0.397 0.292,-2.032 0.566,-3.938 0.836,-5.812 -0.726,-0.584 -1.518,-0.36 -2.228,-0.326 -5.289,0.258 -10.581,0.36 -15.877,0.252 C 6.712,-0.39 8.61,-0.936 8.635,-9.42 c 0.004,-1.561 -0.262,-3.113 -0.493,-4.662 -0.298,-2.001 0.344,-3.898 0.601,-5.961 2.003,0.056 2.858,1.54 4.415,2.156 1.42,-1.175 2.107,-2.716 3.158,-4.345 -2.454,-0.962 -3.731,-2.888 -5.71,-4.186 -1.192,-0.781 -1.574,-1.626 -1.226,-2.796 0.112,-0.378 -0.018,-0.803 0.508,-1.328 4.761,2.462 8.978,5.642 13.857,8.137 0.015,-0.152 1.874,-19.214 1.878,-19.258 -0.654,-0.341 -1.34,-0.084 -1.961,0.049 -2.516,0.539 -5.045,0.377 -7.592,0.245 C 11.817,-41.59 7.56,-41.741 3.304,-41.924 1.802,-41.988 0.3,-42.058 -1.29,-42.129" />
      </g>
      <g
         transform="translate(229.4092,84.7041)"
         id="g120">
        <path
           inkscape:connector-curvature="0"
           id="path122"
           style="fill:#ffce00;fill-opacity:1;fill-rule:nonzero;stroke:none"
           d="m 0,0 c -0.098,-0.055 -0.316,-0.104 -0.354,-0.219 -0.066,-0.195 0.114,-0.327 0.292,-0.375 0.18,-0.048 0.347,0.012 0.404,0.212 C 0.411,-0.142 0.236,-0.072 0,0 m -8.343,19.884 c 0.153,0.936 1.13,1.633 0.864,2.913 -1.048,-0.861 -1.367,-1.749 -0.864,-2.913 M 1.578,-3.128 c -4.476,-1.163 -6.323,1.852 -8.195,5.25 -0.101,-2.776 1.766,-5.917 3.676,-6.668 1.482,-0.584 3.428,-0.082 4.519,1.418 m -7.62,19.111 c 0.485,-3.359 1.245,-6.653 2.381,-9.838 0.371,-1.041 1.072,-1.916 1.986,-2.552 1.58,-1.102 2.926,-0.681 3.548,1.175 0.484,1.441 0.629,2.96 0.316,4.449 -0.401,1.912 -0.955,3.789 -1.422,5.686 -0.383,1.553 -1.319,2.677 -2.574,3.479 -0.954,0.609 -2.031,1.188 -3.169,0.565 -1.136,-0.622 -1.026,-1.831 -1.066,-2.964 M 9.342,3.771 c -0.098,-1.5 -0.165,-3 -0.3,-4.496 C 8.799,-3.422 7.819,-5.765 5.898,-7.636 5.246,-8.271 4.52,-8.834 3.645,-8.965 -1.781,-9.78 -6.325,-8.856 -8.9,-2.822 c -1.533,3.592 -1.893,7.403 -2.581,11.172 -0.831,4.554 -0.873,9.214 -1.776,13.758 -0.286,1.439 0.027,2.859 0.427,4.246 0.171,0.589 0.486,1.07 1.017,1.344 3.227,1.665 6.512,2.927 10.236,2.249 C 0.406,29.586 1.942,28.601 3.028,26.906 7.51,19.913 9.534,12.168 9.342,3.771" />
      </g>
    </g>
  </g>
</svg>
